<!-- svg sprite -->
<svg class="svg-sprite" xmlns="http://www.w3.org/2000/svg">

  <!-- select down-arrow -->
  <symbol id="id-svg--select--down-arrow" viewBox="0 0 13 7" fill="none">
    <path d="M1 1L6.5 6L12 1" stroke="currentColor" stroke-width="2" stroke-linecap="round" stroke-linejoin="round"/>
  </symbol>

  <!-- input-search search-icon -->
  <symbol id="id-svg--input-search--search-icon" viewBox="0 0 23 23" fill="none">
    <path d="M21.7479 21.7474L16.8881 16.8789M19.5812 10.3724C19.5812 12.8146 18.6111 15.1568 16.8842 16.8837C15.1573 18.6106 12.8151 19.5807 10.3729 19.5807C7.93068 19.5807 5.58851 18.6106 3.86161 16.8837C2.13471 15.1568 1.16455 12.8146 1.16455 10.3724C1.16455 7.93019 2.13471 5.58802 3.86161 3.86112C5.58851 2.13422 7.93068 1.16406 10.3729 1.16406C12.8151 1.16406 15.1573 2.13422 16.8842 3.86112C18.6111 5.58802 19.5812 7.93019 19.5812 10.3724Z" stroke="currentColor" stroke-width="1.5" stroke-linecap="round" stroke-linejoin="round"/>
  </symbol>

  <!-- input-search close-button-icon --> 
    <symbol id="id-svg--input-search--close-button-icon" viewBox="0 0 10 10" fill="none">
    <path d="M9 1L1 8.99975" stroke="currentColor" stroke-width="1.5" stroke-linecap="round"/>
    <path d="M9 9L1 1.00025" stroke="currentColor" stroke-width="1.5" stroke-linecap="round"/>
  </symbol>

  <!-- input-password eye-icon -->
  <symbol id="id-svg--input-password--eye-icon" viewBox="0 0 18 12" fill="none">
    <path d="M6.60536 6C6.60536 6.5467 6.84895 7.07102 7.28255 7.45759C7.71614 7.84417 8.30422 8.06135 8.91742 8.06135C9.53062 8.06135 10.1187 7.84417 10.5523 7.45759C10.9859 7.07102 11.2295 6.5467 11.2295 6C11.2295 5.4533 10.9859 4.92898 10.5523 4.54241C10.1187 4.15583 9.53062 3.93865 8.91742 3.93865C8.30422 3.93865 7.71614 4.15583 7.28255 4.54241C6.84895 4.92898 6.60536 5.4533 6.60536 6ZM17.8808 5.52515C15.9238 1.84969 12.9656 0 8.99999 0C5.03233 0 2.0762 1.84969 0.119206 5.52699C0.0407101 5.67518 0 5.83704 0 6.00092C0 6.1648 0.0407101 6.32666 0.119206 6.47485C2.0762 10.1503 5.0344 12 8.99999 12C12.9677 12 15.9238 10.1503 17.8808 6.47301C18.0397 6.17485 18.0397 5.82883 17.8808 5.52515ZM8.91742 9.23926C6.91088 9.23926 5.28418 7.78896 5.28418 6C5.28418 4.21104 6.91088 2.76074 8.91742 2.76074C10.924 2.76074 12.5507 4.21104 12.5507 6C12.5507 7.78896 10.924 9.23926 8.91742 9.23926Z" fill="currentColor"/>
  </symbol>

  <!-- input-password eye-icon-crossed -->
  <symbol id="id-svg--input-password--eye-icon-crossed" viewBox="0 0 18 12" fill="none">
    <path d="M6.60536 6C6.60536 6.5467 6.84895 7.07102 7.28255 7.45759C7.71614 7.84417 8.30422 8.06135 8.91742 8.06135C9.53062 8.06135 10.1187 7.84417 10.5523 7.45759C10.9859 7.07102 11.2295 6.5467 11.2295 6C11.2295 5.4533 10.9859 4.92898 10.5523 4.54241C10.1187 4.15583 9.53062 3.93865 8.91742 3.93865C8.30422 3.93865 7.71614 4.15583 7.28255 4.54241C6.84895 4.92898 6.60536 5.4533 6.60536 6ZM17.8808 5.52515C15.9238 1.84969 12.9656 0 8.99999 0C5.03233 0 2.0762 1.84969 0.119206 5.52699C0.0407101 5.67518 0 5.83704 0 6.00092C0 6.1648 0.0407101 6.32666 0.119206 6.47485C2.0762 10.1503 5.0344 12 8.99999 12C12.9677 12 15.9238 10.1503 17.8808 6.47301C18.0397 6.17485 18.0397 5.82883 17.8808 5.52515ZM8.91742 9.23926C6.91088 9.23926 5.28418 7.78896 5.28418 6C5.28418 4.21104 6.91088 2.76074 8.91742 2.76074C10.924 2.76074 12.5507 4.21104 12.5507 6C12.5507 7.78896 10.924 9.23926 8.91742 9.23926Z" fill="currentColor"/>
    <path stroke-width="2" stroke-dasharray="none" stroke="currentColor" stroke-opacity="1" stroke-linejoin="round" stroke-linecap="round" d="M 1.0159509,0.79509202 16.976687,11.116564"/>
  </symbol>

  <!-- checkbox-tip --> 
  <symbol id="id-svg--checkbox--tip" viewBox="0 0 13 11" fill="none">
    <path d="M4.33363 11L0.554483 6.80315C0.239303 6.45313 0.239303 5.92163 0.554483 5.57161C0.919872 5.16583 1.55618 5.16565 1.9218 5.57122L4.33494 8.24806L4.33363 8.24951L11.0784 0.759198C11.4439 0.353386 12.0803 0.353386 12.4457 0.759199C12.7608 1.1091 12.7608 1.64043 12.4457 1.99035L5.57155 9.62524L4.3345 10.999L4.33363 11Z" fill="currentColor"/>
  </symbol>

  <!-- header button-login login-icon --> 
  <symbol  id="id-svg--header--button-login--login-icon" viewBox="0 0 14 14" fill="none">
    <path fill-rule="evenodd" clip-rule="evenodd" d="M3.88889 3.11111C3.88889 2.28599 4.21667 1.49467 4.80011 0.911223C5.38356 0.327777 6.17488 0 7 0C7.82512 0 8.61644 0.327777 9.19989 0.911223C9.78333 1.49467 10.1111 2.28599 10.1111 3.11111C10.1111 3.93623 9.78333 4.72755 9.19989 5.311C8.61644 5.89445 7.82512 6.22222 7 6.22222C6.17488 6.22222 5.38356 5.89445 4.80011 5.311C4.21667 4.72755 3.88889 3.93623 3.88889 3.11111ZM3.88889 7.77778C2.85749 7.77778 1.86834 8.1875 1.13903 8.91681C0.409721 9.64612 0 10.6353 0 11.6667C0 12.2855 0.245833 12.879 0.683418 13.3166C1.121 13.7542 1.71449 14 2.33333 14H11.6667C12.2855 14 12.879 13.7542 13.3166 13.3166C13.7542 12.879 14 12.2855 14 11.6667C14 10.6353 13.5903 9.64612 12.861 8.91681C12.1317 8.1875 11.1425 7.77778 10.1111 7.77778H3.88889Z" fill="currentColor"/>
  </symbol>

  <!-- header burger-menu burger-menu-icon -->
  <symbol id="id-svg--header--burger-menu--burger-menu-icon" viewBox="0 0 21 18" fill="none">
    <path d="M2 2H19M2 9H19M2 16H19" stroke="currentColor" stroke-width="2.5" stroke-linecap="round" stroke-linejoin="round"/>
  </symbol>

</svg>