<svg class="svg-sprite" xmlns="http://www.w3.org/2000/svg">

  <!-- map-icon eye -->
  <symbol id="id-svg-map--map-icons--eye" viewBox="0 0 80.8 48" fill="none">
    <path d="M55.3 38.4C63.1 30.9 63.5 18.5 56.1 10.5 C64 14.6 70.5 20.9 74.3 25.1 C70.3 29 63.5 34.8 55.3 38.4Z M16 17.8C19.3 15 22.8 12.6 26.6 10.6 C19.3 18.6 19.7 30.9 27.5 38.4 C19.3 34.8 12.4 29 8.5 25.1 C10.8 22.5 13.3 20.1 16 17.8Z M40.4 40C31.6 40 24.4 32.8 24.4 24 C24.4 15.2 31.6 8 40.4 8 C49.2 8 56.4 15.2 56.4 24 C56.4 32.8 49.2 40 40.4 40Z M79.3 22.3C73.5 15.5 58.3 0 40.4 0 C22.5 0 7.3 15.5 1.5 22.3 C0 24.1 0.1 26.6 1.7 28.3 C7.6 34.5 22.7 48 40.4 48 C58.1 48 73.2 34.5 79.2 28.3 C80.7 26.7 80.8 24.1 79.3 22.3Z" fill="currentColor"/>
    <path d="M50.4 24C50.4 29.523 45.923 34 40.4 34 C34.877 34 30.4 29.523 30.4 24 C30.4 18.477 34.877 14 40.4 14 C45.923 14 50.4 18.477 50.4 24Z" fill="currentColor"/>
  </symbol>

  <!-- map-icon lock -->
  <symbol id="id-svg-map--map-icons--lock" viewBox="0 0 56 73" fill="none">
    <path d="M30 57.7V63H26V57.7 C23.7 56.9 22 54.7 22 52 C22 48.7 24.7 46 28 46 C31.3 46 34 48.7 34 52 C34 54.6 32.3 56.8 30 57.7Z M13 21 C13 12.7 19.7 6 28 6 C36.3 6 43 12.7 43 21 V32.1L28 31L13 32.1V21Z M49 32.5V21 C49 9.4 39.6 0 28 0 C16.4 0 7 9.4 7 21 V32.5L0 33V71 L28 73 L56 71V33L49 32.5Z" fill-rule="evenodd" clip-rule="evenodd" fill="currentColor"/>
  </symbol>

  <!-- map-icon money -->
  <symbol id="id-svg-map--map-icons--money" viewBox="0 0 41 86" fill="none">
    <path fill-rule="evenodd" clip-rule="evenodd" d="M35.26 45C31.88 42.12 27.49 40.77 23.33 39.47V15.29 C27.37 15.67 31.14 17.47 34 20.36L38.79 15.76 C34.68 11.58 29.18 9.06 23.33 8.69V0H17V9.07 C14.95 9.47 12.96 10.18 11.12 11.17 C3.87 15.3 0 25 3.11 33.17 C5.52 39.47 11.33 42.28 17.33 44.39V70.57 C12.68 70 8.82 67.33 5.62 64L0.82 68.59 C3.11 71.18 5.83 73.35 8.87 75 C11.53 76.26 14.4 77.02 17.33 77.23V86H23.33V77 C30.21 75.85 36.53 71.62 39.25 65 C41.97 58.38 40.98 49.89 35.26 45ZM12.33 34.73 C6.83 30.09 8.17 21.11 14 17.39 C15.03 16.73 16.15 16.21 17.33 15.86V37.55 C15.52 36.89 13.83 35.94 12.33 34.73ZM30.42 66.55 C28.47 68.46 26.01 69.76 23.33 70.3V46.41 C27.33 47.78 31.92 49.52 33.55 53.78 C35.18 58.04 33.54 63.37 30.42 66.55Z" fill="currentColor"/>
  </symbol>

  <!-- map-icon star -->
  <symbol id="id-svg-map--map-icons--star" viewBox="0 0 80 80" fill="none">
    <path d="M80 30 H50 L40 0 L30 30 H0 L23 50 L14 80 L40 62 L66 80 L57 50 Z" fill="currentColor"/>
  </symbol>

  <!-- map-icon car -->
  <symbol id="id-svg-map--map-icons--car" viewBox="-1 -2 89 48" fill="none">
    <path d="M26.8 33.7c0 4.4-3.6 8-8 8s-8-3.6-8-8 3.6-8 8-8 8 3.6 8 8z M74.8 33.7 c0 4.4-3.6 8-8 8s-8-3.6-8-8 3.6-8 8-8 8 3.6 8 8z M76.8 13.7 h-8.3 c-1.1 0-2.1-.4-2.8-1.2 L53.1 0 c-1.5-1.5-3.5-2.3-5.7-2.3 H18.1 c-2.1 0-4.2.8-5.7 2.3 L0 12.5 c-.8.8-1.2 1.8-1.2 2.9 V25.7 c0 4.4 3.6 8 8 8 h1 c0-6.1 4.9-11 11-11s11 4.9 11 11 h26 c0-6.1 4.9-11 11-11s11 4.9 11 11 h5 c2.2 0 4-1.8 4-4 v-6 c0-5.5-4.5-10-10-10z M33.8 13.7 V1.7 h13.7 c1.1 0 2.1.4 2.8 1.2 L61.1 13.7 H33.8z M29.8 13.7 H4.5 l10.8-10.8 c.8-.8 1.8-1.2 2.8-1.2 H29.8 v12z" fill-rule="evenodd" clip-rule="evenodd" fill="currentColor"/>
  </symbol>
</svg>