<svg width="60" height="64" viewBox="0 0 60 64" fill="none" xmlns="http://www.w3.org/2000/svg">
  <path d="M59.1113 12.7287L59.1114 29.0248L44.8188 37.1087L39.0565 33.5032L39.0908 33.3976C39.4922 32.1642 39.6967 30.8713 39.6967 29.568L39.6967 29.1108C39.6967 28.3244 39.6207 27.5391 39.4698 26.7662C39.4078 26.4484 39.3204 26.136 39.2085 25.8321L39.1335 25.6284C38.8644 24.8972 38.498 24.2063 38.0446 23.5751C37.5366 22.8677 36.926 22.2425 36.2342 21.7211L35.9899 21.537C35.2944 21.0129 34.5409 20.5743 33.7455 20.2305L33.6651 20.1958C32.9338 19.8798 32.1716 19.6458 31.3921 19.498L30.461 19.3215L30.4106 19.6074L30.4106 12.7335L44.8188 4.3153L59.1113 12.7287Z" fill="#FF6600"/>
  <path d="M0 12.7305L14.7612 4.31641L28.8121 12.7305V19.5967L28.7043 19.6185C27.4392 19.8747 26.2232 20.3316 25.1024 20.9718L24.7097 21.1962C24.0331 21.5827 23.3962 22.0349 22.8082 22.5462C22.5666 22.7563 22.3425 22.9858 22.1382 23.2325L22.0014 23.3975C21.5093 23.9917 21.1013 24.6508 20.7889 25.3563C20.4391 26.1464 20.212 26.9854 20.1156 27.8441L20.0814 28.1483C19.9844 29.0119 19.9905 29.884 20.0994 30.7461L20.1104 30.8333C20.2105 31.626 20.397 32.4054 20.6664 33.1576L20.9881 34.0557L21.2597 33.9592L14.7262 37.1098L0 29.0108L0 12.7305Z" fill="#FF6600"/>
  <path d="M14.7266 56.1284V39.0758L22.0897 35.4649L22.214 35.5908C22.7704 36.1544 23.3725 36.6709 24.0142 37.1352L24.403 37.4164C24.9932 37.8435 25.6281 38.2052 26.2964 38.4953L26.5103 38.5881C27.1884 38.8825 27.9026 39.0853 28.6342 39.1911C29.3899 39.3004 30.1568 39.3073 30.9143 39.2114L31.0141 39.1987C31.8891 39.0879 32.7428 38.8476 33.5471 38.4855L33.7501 38.3941C34.7209 37.9571 35.618 37.372 36.4092 36.6596L38.0964 35.1406L44.8192 39.0237V56.2168L29.8082 63.9988L14.7266 56.1284Z" fill="#FF6600"/>
  <circle cx="29.7695" cy="29.3672" r="8" fill="#FF6600"/>
  <path d="M29.4307 24.835C29.6311 25.9694 29.2541 27.1822 28.3164 27.998C28.0584 28.2225 27.7806 28.4073 27.5283 28.5723C27.288 28.7295 27.0733 28.8685 26.874 29.0234L26.3477 29.5508C26.1386 29.7602 25.977 29.9776 25.8594 30.2129L25.8525 30.2256L25.8447 30.2383L25.7617 30.3848C25.1942 31.5877 25.5722 33.0196 26.7207 33.9414C27.7509 34.7652 29.2365 35.0102 30.6904 34.8477H30.6914C31.9892 34.7044 33.1875 33.9916 33.8574 33.0225L33.8584 33.0215L34.0039 32.793C34.1402 32.5606 34.2473 32.3176 34.3105 32.082L34.3174 32.0547L34.3271 32.0293L34.3906 31.8398C34.4262 31.7116 34.4496 31.5785 34.4678 31.4365L34.4912 31.2158C34.5386 30.5532 34.3858 29.8649 34.0625 29.2539C33.994 29.9351 33.7201 30.5986 33.2393 31.1426C33.1959 31.1945 33.1404 31.2536 33.0605 31.3135L33.0615 31.3154C32.8177 31.5039 32.4682 31.5935 32.126 31.4668L32.125 31.4678C32.123 31.4671 32.1212 31.4656 32.1191 31.4648C32.1147 31.4632 32.1099 31.4627 32.1055 31.4609L32.1064 31.459C31.8224 31.3524 31.5352 31.0758 31.5352 30.6787C31.5352 30.4826 31.6066 30.3323 31.6357 30.2695H31.6348C32.4039 28.5134 31.7747 26.4374 30.1006 25.2441C29.8902 25.0951 29.6653 24.9557 29.4307 24.835ZM30.0859 28.8154C30.3451 29.371 30.3567 29.8817 30.2559 30.4229L30.2549 30.4258C30.227 30.5694 30.1902 30.7042 30.1572 30.8213C30.1228 30.9438 30.0942 31.0422 30.0713 31.1416C30.0281 31.3288 30.0177 31.4723 30.0518 31.6172C30.1457 31.9809 30.4943 32.4086 31.1885 32.5508L32.1895 32.7559L31.4141 33.4199C30.8587 33.8958 29.8958 34.3503 28.8799 34.0439L28.8789 34.0449C28.5519 33.9636 28.1649 33.7673 27.915 33.5811L26.707 32.6797H27.2383C27.1062 32.3732 27.0382 32.0434 27.0518 31.7217H27.0527C27.0543 31.6177 27.0658 31.5172 27.0898 31.4189L27.1201 31.3145C27.2559 30.7501 27.6076 30.3877 27.9365 30.1143C28.091 29.9858 28.2917 29.8368 28.4268 29.7295C28.5796 29.608 28.7105 29.4937 28.8193 29.3691L28.8213 29.3672L28.916 29.248C29.0103 29.1201 29.102 28.966 29.1885 28.7979L29.6553 27.8906L30.0859 28.8154Z" fill="#221F2F" stroke="#221F2F"/>
  <path d="M15.0459 7.54102L25.6103 13.7718" stroke="#221F2F" stroke-width="1.5" stroke-linecap="round"/>
  <path d="M44.4493 7.48828L33.6738 13.6159" stroke="#221F2F" stroke-width="1.5" stroke-linecap="round"/>
  <path d="M56.9844 14.4277L56.9844 26.8892" stroke="#221F2F" stroke-width="1.5" stroke-linecap="round"/>
  <path d="M3.20142 28.2012L13.7658 33.776" stroke="#221F2F" stroke-width="1.5" stroke-linecap="round"/>
  <path d="M17.9275 55.0918L27.6122 59.9136" stroke="#221F2F" stroke-width="1.5" stroke-linecap="round"/>
  <path d="M32.3262 59.9141L42.2573 54.7641" stroke="#221F2F" stroke-width="1.5" stroke-linecap="round"/>
</svg>     
