<svg viewBox="0 67 898 931" fill="none" xmlns="http://www.w3.org/2000/svg">
  <path d="M895.626 198.501L895.628 452.62L679.073 578.68L591.765 522.456L596.435 507.686C599.768 497.144 601.466 486.082 601.466 474.909L601.466 461.091L601.466 453.886C601.466 441.673 600.316 429.461 598.033 417.426C597.089 412.453 595.758 407.558 594.054 402.792L591.871 396.69C588.497 387.258 583.894 378.329 578.191 370.157L574.521 364.897C568.092 355.684 560.353 347.531 551.579 340.726L540.22 331.916C533.058 326.362 525.298 321.712 517.106 318.069L504.008 312.243C496.963 309.109 489.623 306.789 482.123 305.326L461.53 301.308L460.766 305.767L460.766 198.576L679.073 67.3039L895.626 198.501Z" fill="#FF6600"/>
  <path d="M0 198.528L223.655 67.3203L436.547 198.528V305.599L422.723 308.48C411.633 310.791 400.995 314.899 391.229 320.64L380.339 327.043L374.518 330.466C364.182 336.543 354.474 343.632 345.539 351.628C341.905 354.882 338.541 358.426 335.482 362.226L331.192 367.557C325.169 375.04 320.192 383.306 316.396 392.13L313.324 399.27C309.122 409.038 306.399 419.378 305.246 429.949L303.46 446.317C302.525 454.893 302.583 463.548 303.634 472.11L305.62 488.288C306.528 495.688 308.221 502.969 310.672 510.01L318.002 531.07L322.116 529.565L223.124 578.696L0 452.402L0 198.528Z" fill="#FF6600"/>
  <path d="M223.13 875.271V609.355L334.692 553.047L343.018 561.726C347.161 566.045 351.656 570.012 356.456 573.586L373.546 586.311C379.96 591.087 386.881 595.143 394.182 598.405L403.515 602.574C412.563 606.616 422.12 609.406 431.921 610.865L435.778 611.44C445.946 612.954 456.275 613.048 466.47 611.72L473.64 610.786C484.422 609.381 494.928 606.34 504.794 601.769L518.364 595.482C528.434 590.817 537.709 584.599 545.85 577.056L577.218 547.99L679.079 608.543V876.65L451.639 998.001L223.13 875.271Z" fill="#FF6600"/>
  <ellipse cx="451.053" cy="457.96" rx="121.212" ry="124.751" fill="#FF6600"/>
  <path d="M434.398 375.006C443.893 393.327 440.389 416.787 424.396 431.105C420.894 434.241 417.062 436.874 413.231 439.453C409.391 442.037 405.556 444.564 401.995 447.506C399.34 449.883 396.629 452.23 394.256 454.88L394.861 454.988L394.206 455.663C390.598 459.383 387.653 463.388 385.475 467.874L385.469 467.887L385.462 467.899L384.039 470.446C373.841 492.374 380.543 517.925 399.537 534.225L400.45 534.993C418.062 549.487 442.718 553.334 465.798 550.678H465.799C487.382 548.226 507.429 536.06 518.813 519.107V519.106L519.462 518.125C522.666 513.178 525.252 507.674 526.684 502.181L526.691 502.155L526.699 502.13L527.032 501.216C528.63 496.649 529.234 492.071 529.647 487.454C531.128 466.864 522.031 445.072 505.151 431.62C512.305 447.384 510.192 466.456 498.892 480.142L498.324 480.815C497.768 481.512 497.297 482.041 496.59 482.568V482.567C494.494 484.229 491.675 484.875 489.066 483.822L489.065 483.823C486.708 482.979 484.873 480.846 484.873 478.416C484.873 477.013 485.361 475.936 485.8 474.954C498.929 444.088 487.99 408.105 460.157 387.699C452.748 382.298 443.932 377.37 434.398 375.006ZM449.439 452.443C452.579 459.372 452.796 465.699 451.46 473.075V473.079C451.098 475.001 450.611 476.85 450.117 478.654C449.623 480.464 449.123 482.223 448.727 483.992C447.936 487.521 447.565 491.04 448.478 494.886C450.636 503.476 458.2 512.024 471.141 514.75L472.116 514.956L471.369 515.615C463.91 522.193 451.601 527.834 439.24 523.812C435.31 522.8 430.303 520.208 427.176 517.809L426.007 516.912H426.254C420.344 511.519 416.861 503.366 416.927 495.757L416.946 494.981C416.948 493.466 417.175 492.048 417.623 490.633C419.039 483.771 423.104 479.244 427.803 475.223C430.14 473.223 432.687 471.307 435.112 469.323C437.554 467.325 439.919 465.225 441.986 462.791L441.988 462.789L442.452 462.232C444.757 459.408 446.786 455.928 448.536 452.426L449.005 451.487L449.439 452.443Z" fill="white" stroke="white"/>
  <path d="M227.968 117.605L388.035 214.767" stroke="white" stroke-width="20" stroke-linecap="round"/>
  <path d="M673.475 116.783L510.209 212.337" stroke="white" stroke-width="20" stroke-linecap="round"/>
  <path d="M863.4 224.996L863.4 419.319" stroke="white" stroke-width="20" stroke-linecap="round"/>
  <path d="M48.5063 439.777L208.574 526.711" stroke="white" stroke-width="20" stroke-linecap="round"/>
  <path d="M271.629 859.105L418.367 934.296" stroke="white" stroke-width="20" stroke-linecap="round"/>
  <path d="M489.791 934.303L640.263 853.994" stroke="white" stroke-width="20" stroke-linecap="round"/>
</svg>
